<svg id="Layer_1" data-name="Layer 1" xmlns="http://www.w3.org/2000/svg" viewBox="0 0 943.89 364.63"><defs><style>.cls-1,.cls-3{fill:none;}.cls-1,.cls-2{stroke:#460026;stroke-width:14.33px;}.cls-1,.cls-2,.cls-3{stroke-miterlimit:10;}.cls-2{fill:#460026;}.cls-3{stroke:#fff;stroke-linecap:round;stroke-width:7.17px;}.cls-4{fill:#fff;}</style></defs><title>L&amp;apos;AvenueGreeneFINAL_maroon</title><path class="cls-1" d="M499.72,437.06" transform="translate(-27.77 -318.1)"/><rect class="cls-2" x="7.17" y="7.17" width="929.56" height="350.3" rx="65.3"/><line class="cls-3" x1="793.91" y1="40.41" x2="914.55" y2="182.32"/><line class="cls-3" x1="793.91" y1="324.23" x2="914.55" y2="182.32"/><line class="cls-3" x1="767.38" y1="40.41" x2="888.02" y2="182.32"/><line class="cls-3" x1="767.38" y1="324.23" x2="888.02" y2="182.32"/><line class="cls-3" x1="741.36" y1="40.41" x2="862.01" y2="182.32"/><line class="cls-3" x1="741.36" y1="324.23" x2="862.01" y2="182.32"/><path class="cls-4" d="M245.34,531.74h43.49v3.65a79,79,0,0,1-2.8,22,47.45,47.45,0,0,1-9.2,16.6q-14.65,17.33-37.28,17.32-22.08,0-37.82-16.75T186,534.24q0-24,16-40.79t39-16.82a51.25,51.25,0,0,1,23,5.3q10.22,5.29,20.1,17.17l-11.31,11.38q-12.94-18.11-31.55-18.11a36.85,36.85,0,0,0-28,12.1q-11.31,11.88-11.31,29.77,0,18.46,12.61,30.42,11.79,11.08,25.56,11.09a30.9,30.9,0,0,0,21.06-8.3q9.33-8.38,10.42-20H245.34Z" transform="translate(-27.77 -318.1)"/><path class="cls-4" d="M344.44,542.18,377,589.27H357.59l-30-45.23h-2.86v45.23H308.8V478.78h18.6q20.85,0,30.13,8.23,10.22,9.15,10.22,24.19a32.44,32.44,0,0,1-6.41,20.18A28.33,28.33,0,0,1,344.44,542.18Zm-19.76-12.66h5q22.56,0,22.56-18.11,0-17-21.95-17h-5.65Z" transform="translate(-27.77 -318.1)"/><path class="cls-4" d="M450.9,494.45H408.71V521h41v15.67h-41V573.6H450.9v15.67H392.83V478.78H450.9Z" transform="translate(-27.77 -318.1)"/><path class="cls-4" d="M529.82,494.45H487.63V521h41v15.67h-41V573.6h42.19v15.67H471.75V478.78h58.07Z" transform="translate(-27.77 -318.1)"/><path class="cls-4" d="M550.67,589.27v-118l76.74,84.31V478.78h15.88V596l-76.74-84.09v77.36Z" transform="translate(-27.77 -318.1)"/><path class="cls-4" d="M726.58,494.45H684.39V521h41v15.67h-41V573.6h42.19v15.67H668.51V478.78h58.07Z" transform="translate(-27.77 -318.1)"/><path class="cls-4" d="M317.44,445.13V402.81h2.93V442.2h23.76v2.93Z" transform="translate(-27.77 -318.1)"/><path class="cls-4" d="M350.06,402.81h3.39l-3.26,6.25h-2.28Z" transform="translate(-27.77 -318.1)"/><path class="cls-4" d="M363.47,434.39l-5,10.74H355.2l19.93-42.84L394,445.13h-3.19L386,434.39ZM375,409.51l-10.16,21.95H384.7Z" transform="translate(-27.77 -318.1)"/><path class="cls-4" d="M413.29,438.56l16-35.75h3.26l-19.28,43-19.21-43h3.19Z" transform="translate(-27.77 -318.1)"/><path class="cls-4" d="M441.75,445.13V402.81h27.41v3H444.68v16.67h19.08v3H444.68v16.6h24.48v3.06Z" transform="translate(-27.77 -318.1)"/><path class="cls-4" d="M483.29,410.75v34.38h-2.93V402.29l29.3,35V402.81h2.93v43Z" transform="translate(-27.77 -318.1)"/><path class="cls-4" d="M540.6,445.59a15.44,15.44,0,0,1-6.16-1.27,16.23,16.23,0,0,1-5.24-3.61,15,15,0,0,1-3.48-5.21,16.68,16.68,0,0,1-1.21-6.32V402.81h2.93v26.37a13.73,13.73,0,0,0,1,5.21,13,13,0,0,0,2.83,4.3,13.19,13.19,0,0,0,4.3,2.89,13.1,13.1,0,0,0,10.09,0,13.19,13.19,0,0,0,4.3-2.89,13,13,0,0,0,2.84-4.3,13.72,13.72,0,0,0,1-5.21V402.81h2.94v26.37a16.88,16.88,0,0,1-1.21,6.32,15,15,0,0,1-3.48,5.21,16.32,16.32,0,0,1-5.21,3.61A15.52,15.52,0,0,1,540.6,445.59Z" transform="translate(-27.77 -318.1)"/><path class="cls-4" d="M568.66,445.13V402.81h27.42v3H571.59v16.67h19.08v3H571.59v16.6h24.49v3.06Z" transform="translate(-27.77 -318.1)"/></svg>