<svg id="Layer_1" data-name="Layer 1" xmlns="http://www.w3.org/2000/svg" viewBox="0 0 952.19 552.68"><defs><style>.cls-1,.cls-2,.cls-3{fill:#7ac943;}.cls-1,.cls-3{stroke:#7ac943;stroke-miterlimit:10;}.cls-1{stroke-width:2.57px;}.cls-3{stroke-width:15.39px;}</style></defs><title>TheHigherHighFINAL</title><path class="cls-1" d="M531.78,578.3v-174H467.66v174H445.21V207.35h22.45V390.89h64.12V207.35h22.46V578.3Z" transform="translate(-18.46 -167.27)"/><path class="cls-2" d="M44.37,717.88V620.13H18.46l1-9.53H81.24l1,9.53H56.45v97.75Z" transform="translate(-18.46 -167.27)"/><path class="cls-2" d="M142.27,717.88v-51H107.79v51H95.71V610.6h12.08v46.72h34.48V610.6h12.08V717.88Z" transform="translate(-18.46 -167.27)"/><path class="cls-2" d="M178.19,717.88V610.6h43.08l.95,9.53H190.27v37.19h29.25v9.54H190.27v41.48h34.49l-.95,9.54Z" transform="translate(-18.46 -167.27)"/><path class="cls-2" d="M321.24,717.88v-51H286.75v51H274.67V610.6h12.08v46.72h34.49V610.6h12.08V717.88Z" transform="translate(-18.46 -167.27)"/><path class="cls-2" d="M357.16,717.88V610.6h12.08V717.88Z" transform="translate(-18.46 -167.27)"/><path class="cls-2" d="M423.43,720c-28.29,0-37-17.81-37-55.47s12.24-56,36.08-56c7.63,0,15.42,2.07,20.82,5.72l1.11,8.9a40.14,40.14,0,0,0-18.59-4.45c-18.92,0-26.54,15.9-26.54,46.73,0,31.79,5.88,45.14,24.79,45.14a35.92,35.92,0,0,0,10.65-1.91v-34l-12.08-1.27v-7.31h23.84V716A68.88,68.88,0,0,1,423.43,720Z" transform="translate(-18.46 -167.27)"/><path class="cls-2" d="M512.76,717.88v-51H478.27v51H466.19V610.6h12.08v46.72h34.49V610.6h12.07V717.88Z" transform="translate(-18.46 -167.27)"/><path class="cls-2" d="M548.68,717.88V610.6h43.07l1,9.53h-32v37.19H590v9.54H560.75v41.48h34.49l-1,9.54Z" transform="translate(-18.46 -167.27)"/><path class="cls-2" d="M658.34,717.88,649.6,687c-4.13-12.87-8.58-16.37-16.05-16.37h-8.43v47.21H613.05V610.6h24.79c17,0,26.54,7.94,26.54,29.08,0,16.37-7,24-16.69,26.7v.32c7,3.34,10.34,8.58,13.51,18l10.18,33.22Zm-23.2-98.54h-10v42.28h10c10.81,0,16.69-6.52,16.69-21.3C651.83,625.86,647.06,619.34,635.14,619.34Z" transform="translate(-18.46 -167.27)"/><path class="cls-2" d="M767.06,717.88v-51H732.57v51H720.49V610.6h12.08v46.72h34.49V610.6h12.07V717.88Z" transform="translate(-18.46 -167.27)"/><path class="cls-2" d="M803,717.88V610.6h12.07V717.88Z" transform="translate(-18.46 -167.27)"/><path class="cls-2" d="M869.25,720c-28.29,0-37-17.81-37-55.47s12.24-56,36.08-56c7.63,0,15.42,2.07,20.82,5.72l1.11,8.9a40.14,40.14,0,0,0-18.59-4.45c-18.92,0-26.55,15.9-26.55,46.73,0,31.79,5.88,45.14,24.8,45.14a35.92,35.92,0,0,0,10.65-1.91v-34l-12.08-1.27v-7.31H892.3V716A68.93,68.93,0,0,1,869.25,720Z" transform="translate(-18.46 -167.27)"/><path class="cls-2" d="M958.57,717.88v-51H924.08v51H912V610.6h12.07v46.72h34.49V610.6h12.08V717.88Z" transform="translate(-18.46 -167.27)"/><line class="cls-3" x1="444.35" y1="125.87" x2="518.18" y2="125.87"/><line class="cls-3" x1="444.35" y1="340.95" x2="518.18" y2="340.95"/><polygon class="cls-1" points="437.9 3.1 410.19 55.23 465.61 55.23 437.9 3.1"/><polygon class="cls-1" points="523.83 2.73 496.13 54.87 551.54 54.87 523.83 2.73"/></svg>